<svg width="33" height="32" viewBox="0 0 33 32" fill="none" xmlns="http://www.w3.org/2000/svg">
<path d="M12.25 9.25C12.6875 8.9375 13.3125 8.9375 13.75 9.25L22.75 14.75C23.1875 15 23.5 15.5 23.5 16C23.5 16.5625 23.1875 17.0625 22.75 17.3125L13.75 22.8125C13.3125 23.0625 12.6875 23.125 12.25 22.8125C11.75 22.5625 11.5 22.0625 11.5 21.5V10.5C11.5 10 11.75 9.5 12.25 9.25ZM32.5 16C32.5 24.875 25.3125 32 16.5 32C7.625 32 0.5 24.875 0.5 16C0.5 7.1875 7.625 0 16.5 0C25.3125 0 32.5 7.1875 32.5 16ZM16.5 3C9.3125 3 3.5 8.875 3.5 16C3.5 23.1875 9.3125 29 16.5 29C23.625 29 29.5 23.1875 29.5 16C29.5 8.875 23.625 3 16.5 3Z" fill="#0D1181"/>
</svg>
