<svg width="30" height="30" viewBox="0 0 30 30" fill="none" xmlns="http://www.w3.org/2000/svg">
<circle cx="15" cy="15" r="15" fill="#BED8FF"/>
<path d="M20.25 16.0625C21.207 16.0625 22 16.8555 22 17.8125V20C22 20.9844 21.207 21.75 20.25 21.75H9.75C8.76562 21.75 8 20.9844 8 20V17.8125C8 16.8555 8.76562 16.0625 9.75 16.0625H13.25V17.375H9.75C9.50391 17.375 9.3125 17.5938 9.3125 17.8125V20C9.3125 20.2461 9.50391 20.4375 9.75 20.4375H20.25C20.4688 20.4375 20.6875 20.2461 20.6875 20V17.8125C20.6875 17.5938 20.4688 17.375 20.25 17.375H16.75V16.0625H20.25ZM11.7188 12.5898C11.4727 12.8633 11.0625 12.8633 10.8164 12.5898C10.543 12.3438 10.543 11.9336 10.8164 11.6875L14.5352 7.96875C14.7812 7.69531 15.1914 7.69531 15.4375 7.96875L19.1562 11.6875C19.4297 11.9336 19.4297 12.3438 19.1562 12.5898C19.0469 12.7266 18.8828 12.7812 18.7188 12.7812C18.5273 12.7812 18.3633 12.7266 18.2539 12.5898L15.6562 9.99219V17.375C15.6562 17.7578 15.3555 18.0312 15 18.0312C14.6172 18.0312 14.3438 17.7578 14.3438 17.375V9.99219L11.7188 12.5898ZM19.8125 18.9062C19.8125 19.2891 19.5117 19.5625 19.1562 19.5625C18.7734 19.5625 18.5 19.2891 18.5 18.9062C18.5 18.5508 18.7734 18.25 19.1562 18.25C19.5117 18.25 19.8125 18.5508 19.8125 18.9062Z" fill="#0D1181"/>
</svg>
