<svg width="20" height="20" viewBox="0 0 20 20" fill="none" xmlns="http://www.w3.org/2000/svg">
<circle cx="10" cy="10" r="10" fill="#DCDCDC"/>
<path d="M13.3125 13.2891C13.5234 13.5234 13.5234 13.875 13.3125 14.0859C13.0781 14.3203 12.7266 14.3203 12.5156 14.0859L9.75 11.2969L6.96094 14.0859C6.72656 14.3203 6.375 14.3203 6.16406 14.0859C5.92969 13.875 5.92969 13.5234 6.16406 13.2891L8.95312 10.5L6.16406 7.71094C5.92969 7.47656 5.92969 7.125 6.16406 6.91406C6.375 6.67969 6.72656 6.67969 6.9375 6.91406L9.75 9.72656L12.5391 6.9375C12.75 6.70312 13.1016 6.70312 13.3125 6.9375C13.5469 7.14844 13.5469 7.5 13.3125 7.73438L10.5234 10.5L13.3125 13.2891Z" fill="#818181"/>
</svg>
