<svg width="278" height="6" viewBox="0 0 278 6" fill="none" xmlns="http://www.w3.org/2000/svg">
<path d="M0.33732 5.27803C6.09734 4.90629 11.8549 4.58782 17.6124 4.26935L26.2856 3.82007L34.88 3.42049C46.3901 2.89009 57.9691 2.52306 69.4742 2.0992C92.5559 1.36157 115.697 1.0004 138.827 0.852292L156.208 0.862852C162.027 0.867561 167.765 0.97524 173.581 1.03322L182.229 1.11662L190.949 1.31012C196.763 1.42136 202.501 1.52904 208.31 1.74683C231.477 2.45458 254.622 3.64176 277.74 5.41488C266.206 4.82308 254.602 4.06791 243.058 3.68918L234.346 3.33587L229.991 3.13258L225.631 3.03583L208.273 2.54585C185.095 2.05117 161.985 1.77312 138.854 1.92123C115.728 1.96279 92.585 2.37724 69.5133 2.90179C57.9393 3.16228 46.4391 3.47961 34.8576 3.8999C23.4314 4.27406 11.9238 4.75119 0.33732 5.27803Z" fill="#0D1181"/>
</svg>
