<svg width="278" height="9" viewBox="0 0 278 9" fill="none" xmlns="http://www.w3.org/2000/svg">
<path d="M0.104312 3.18502C23.1319 1.96442 46.2111 1.28006 69.3493 0.972153C80.9184 0.818199 92.485 0.717513 104.047 0.723364L112.776 0.703792L121.501 0.790758C127.318 0.848735 133.06 0.849878 138.874 0.961123C162.059 1.296 185.221 2.1103 208.369 3.2442C231.514 4.43138 254.629 6.25777 277.64 8.66655C266.032 8.01791 254.515 7.05323 242.976 6.56796L234.269 6.10812L229.916 5.85156L225.561 5.64828L208.289 4.94879C205.386 4.81327 202.48 4.73101 199.651 4.65232L191.012 4.35585L182.374 4.05937L173.58 3.80904L156.219 3.37233L138.851 3.09543C133.037 2.98418 127.297 2.92977 121.481 2.87179L112.832 2.78839L104.184 2.70499C92.6271 2.59261 81.063 2.64002 69.5039 2.5809C57.9398 2.62832 46.3782 2.62247 34.8091 2.77643C23.245 2.82384 11.6734 3.03107 0.104312 3.18502Z" fill="#0D1181"/>
</svg>
