<svg width="112" height="20" viewBox="0 0 112 20" fill="none" xmlns="http://www.w3.org/2000/svg">
<g clip-path="url(#clip0_7104_1342)">
<path d="M39.8944 20C35.84 20 32.0768 18.7727 29.568 16.4773C27.664 14.75 26.7456 12.4091 26.7456 9.97727C26.7456 7.59091 27.6864 5.22727 29.568 3.5C31.8976 1.34091 36.0192 0 39.8944 0C44.1952 0 47.6224 1.09091 50.2432 3.52273C52.1024 5.25 53.0208 7.59091 53.0208 10C53.0208 12.3182 52.0576 14.7955 50.2432 16.5C47.824 18.7955 43.9712 20 39.8944 20V17.3636C42.0448 17.3636 44.0384 16.6136 45.4496 15.2045C46.8384 13.7955 47.488 12.0909 47.488 9.97727C47.488 7.95455 46.7936 6.09091 45.4496 4.75C44.0832 3.36364 42.0224 2.59091 39.8944 2.59091C37.7664 2.59091 35.7056 3.36364 34.3392 4.75C33.0176 6.09091 32.3232 7.97727 32.3232 9.97727C32.3232 11.9773 33.0176 13.8636 34.3392 15.2045C35.728 16.5909 37.7664 17.3636 39.8944 17.3636V20Z" fill="white"/>
<path d="M10.2368 0C8.064 0 5.6 0.409091 3.5168 1.36364C1.5904 2.25 0 3.65909 0 6C0 8.11363 1.3216 9.36363 1.2768 9.31818C1.8368 9.84091 2.7552 10.75 5.1072 11.2727C6.16 11.5 8.4224 11.8636 10.6848 12.1136C12.9248 12.3636 15.12 12.5909 16.016 12.8182C16.7328 13 17.92 13.25 17.92 14.6136C17.92 15.9773 16.6656 16.3864 16.4416 16.4773C16.2176 16.5682 14.7168 17.2727 11.984 17.2727C9.968 17.2727 7.5712 16.6591 6.6752 16.3409C5.6672 15.9773 4.592 15.5 3.6064 14.25C3.36 13.9545 2.9792 13.1136 2.9792 12.2727H0.5152V19.2727H3.248C3.248 19.2727 3.248 18.5 3.248 18.3182C3.248 18.2045 3.3824 17.7727 3.8304 17.9773C4.4128 18.25 6.0704 18.9091 7.84 19.2955C9.2736 19.5909 10.2144 19.8182 11.984 19.8182C14.896 19.8182 16.464 19.3409 17.5616 19.0227C18.592 18.7273 19.8464 18.2045 20.8768 17.3636C21.4368 16.9091 22.6464 15.7727 22.6464 13.6818C22.6464 11.6818 21.5936 10.4318 21.2128 10.0682C20.6976 9.54545 20.0928 9.15909 19.4432 8.84091C18.8832 8.56818 17.9872 8.25 17.2704 8.06818C15.8592 7.72727 12.6784 7.27273 11.1328 7.11363C9.5424 6.95454 6.7648 6.70454 5.6448 6.36364C5.3088 6.25 4.6144 5.93182 4.6144 5.11364C4.6144 4.54545 4.928 4.04545 5.5552 3.65909C6.5408 3.04545 8.512 2.63636 10.5952 2.63636C13.0368 2.63636 15.12 3.20455 16.4416 3.79545C16.8896 4 17.4048 4.29545 17.8304 4.63636C18.3008 5.02273 18.9504 5.84091 19.1968 6.95454H21.4144V0.886363H18.9504V1.59091C18.9504 1.81818 18.7264 2.11364 18.2784 1.86364C17.2032 1.27273 14.0672 0.0227273 10.2368 0Z" fill="white"/>
<path d="M64.333 1.11328L76.3842 12.136L76.2498 4.70419C76.2274 3.72692 76.0706 3.31783 75.0178 3.31783C73.629 3.31783 72.7554 3.31783 72.7554 3.31783V1.11328H83.0594V3.34055C83.0594 3.34055 82.2306 3.34055 80.8418 3.34055C79.789 3.34055 79.7218 3.68146 79.6994 4.72692L79.8786 18.9087H76.3842L62.5186 6.34055V15.2496C62.541 16.2269 62.5858 16.6815 63.549 16.6815C64.9378 16.6815 66.013 16.6815 66.013 16.6815V18.9087H55.9106V16.6815C55.9106 16.6815 56.8962 16.6815 58.285 16.6815C59.1586 16.6815 59.1362 15.8178 59.1362 15.2042V4.7951C59.1362 4.11328 59.0466 3.34055 57.6578 3.34055H55.7314V1.11328H64.333Z" fill="white"/>
<path d="M94.8414 16.6815C94.931 16.6815 95.3566 16.6587 95.4462 16.636C95.6926 16.5678 95.8494 16.386 95.9166 16.2042C95.939 16.136 95.9614 15.7951 95.9614 15.7269C95.9614 15.7269 95.9614 12.3406 95.9614 12.2269C95.9614 12.136 95.9614 12.1133 95.8046 11.9087C95.6478 11.7042 89.4878 4.63601 89.219 4.31783C88.8606 3.93146 88.2558 3.34055 87.315 3.34055C86.5758 3.34055 85.187 3.34055 85.187 3.34055V1.11328H97.2606V3.34055C97.2606 3.34055 96.0958 3.34055 95.8046 3.34055C95.4686 3.34055 95.2446 3.65874 95.5358 4.02237C95.5358 4.02237 99.5902 8.95419 99.635 8.99965C99.6798 9.0451 99.7022 9.06783 99.747 9.02237C99.7918 8.97692 103.913 4.06783 103.936 4.02237C104.137 3.7951 104.003 3.34055 103.577 3.34055C103.286 3.34055 102.077 3.34055 102.077 3.34055V1.11328H112V3.34055C112 3.34055 110.521 3.34055 109.782 3.34055C108.976 3.34055 108.662 3.49965 108.057 4.18146C107.789 4.49965 101.561 11.7042 101.405 11.886C101.315 11.9769 101.315 12.136 101.315 12.2042C101.315 12.3406 101.315 15.386 101.315 15.7042C101.315 15.7724 101.337 16.1133 101.36 16.1815C101.427 16.3633 101.606 16.5224 101.83 16.6133C101.92 16.636 102.345 16.6587 102.435 16.6587C102.861 16.6587 104.697 16.6587 104.697 16.6587V18.886H92.691V16.6587L94.8414 16.6815Z" fill="white"/>
</g>
<defs>
<clipPath id="clip0_7104_1342">
<rect width="112" height="20" fill="white"/>
</clipPath>
</defs>
</svg>
