<svg width="29" height="25" viewBox="0 0 29 25" fill="none" xmlns="http://www.w3.org/2000/svg">
<path d="M28.3125 12.375L16.3125 23.875C16.125 24.0625 15.8125 24.0625 15.625 23.875C15.4375 23.6875 15.4375 23.375 15.625 23.1875L26.75 12.5H1C0.6875 12.5 0.5 12.3125 0.5 12C0.5 11.75 0.6875 11.5 1 11.5H26.75L15.625 0.875C15.4375 0.6875 15.4375 0.375 15.625 0.1875C15.8125 0 16.125 0 16.3125 0.1875L28.3125 11.6875C28.4375 11.75 28.5 11.875 28.5 12C28.5 12.1875 28.4375 12.3125 28.3125 12.375Z" fill="#0D1181"/>
</svg>
