<svg width="37" height="37" viewBox="0 0 37 37" fill="none" xmlns="http://www.w3.org/2000/svg">
<path id="arrow-left" d="M4.625 18.6875L16.625 7.1875C16.8125 7 17.125 7 17.3125 7.1875C17.5 7.375 17.5 7.6875 17.3125 7.875L6.1875 18.5H32C32.25 18.5 32.5 18.75 32.5 19C32.5 19.3125 32.25 19.5 32 19.5H6.1875L17.3125 30.1875C17.5 30.375 17.5 30.6875 17.3125 30.875C17.125 31.0625 16.8125 31.0625 16.625 30.875L4.625 19.375C4.5 19.3125 4.5 19.1875 4.5 19C4.5 18.875 4.5 18.75 4.625 18.6875Z" fill="#0D1181"/>
</svg>
