<svg width="15" height="13" viewBox="0 0 15 13" fill="none" xmlns="http://www.w3.org/2000/svg">
<path d="M11.6172 0.96875L12.5312 1.88281C13.1172 2.46875 13.1172 3.42969 12.5312 4.01562L11.4062 5.14062L8.35938 2.09375L9.48438 0.96875C10.0703 0.382812 11.0312 0.382812 11.6172 0.96875ZM2.35938 8.09375L7.82031 2.63281L10.8672 5.67969L5.40625 11.1406C5.17188 11.375 4.86719 11.5625 4.53906 11.6562L1.70312 12.4766C1.51562 12.5469 1.30469 12.5 1.16406 12.3359C1 12.1953 0.953125 11.9844 1.02344 11.7969L1.84375 8.96094C1.9375 8.63281 2.125 8.32812 2.35938 8.09375ZM6.8125 11.375H13.9375C14.2422 11.375 14.5 11.6328 14.5 11.9375C14.5 12.2656 14.2422 12.5 13.9375 12.5H6.8125C6.48438 12.5 6.25 12.2656 6.25 11.9375C6.25 11.6328 6.48438 11.375 6.8125 11.375Z" fill="#0D1181"/>
</svg>
