<?xml version="1.0" encoding="UTF-8" standalone="no"?>
<svg
   width="26"
   height="26"
   viewBox="0 0 26 26"
   fill="none"
   version="1.1"
   id="svg1"
   sodipodi:docname="search.svg"
   xmlns:inkscape="http://www.inkscape.org/namespaces/inkscape"
   xmlns:sodipodi="http://sodipodi.sourceforge.net/DTD/sodipodi-0.dtd"
   xmlns="http://www.w3.org/2000/svg"
   xmlns:svg="http://www.w3.org/2000/svg">
  <defs
     id="defs1" />
  <sodipodi:namedview
     id="namedview1"
     pagecolor="#ffffff"
     bordercolor="#000000"
     borderopacity="0.25"
     inkscape:showpageshadow="2"
     inkscape:pageopacity="0.0"
     inkscape:pagecheckerboard="0"
     inkscape:deskcolor="#d1d1d1" />
  <path
     style="color:#000000;fill:#ffffff;-inkscape-stroke:none"
     d="M 11.957031,0 C 5.3654962,0 0,5.3654962 0,11.957031 c 0,6.591626 5.3655072,11.955078 11.957031,11.955078 2.929865,0 5.523717,-1.179105 7.605469,-2.935547 l 4.730469,4.730469 1.414062,-1.414062 -4.730469,-4.730469 c 1.756442,-2.081752 2.935547,-4.675604 2.935547,-7.605469 C 23.912109,5.3655072 18.548657,0 11.957031,0 Z m 0,2 c 5.510762,0 9.955078,4.4463674 9.955078,9.957031 0,5.510773 -4.444305,9.955078 -9.955078,9.955078 C 6.4463674,21.912109 2,17.467793 2,11.957031 2,6.4463784 6.4463784,2 11.957031,2 Z"
     id="Vector" />
</svg>
